<?xml version="1.0" standalone="no"?><!DOCTYPE svg PUBLIC "-//W3C//DTD SVG 1.1//EN" "http://www.w3.org/Graphics/SVG/1.1/DTD/svg11.dtd"><svg t="1637472521003" class="icon" viewBox="0 0 1024 1024" version="1.1" xmlns="http://www.w3.org/2000/svg" p-id="2732" xmlns:xlink="http://www.w3.org/1999/xlink" width="200" height="200"><defs><style type="text/css"></style></defs><path d="M592 880H432l-24-96-6.56-2.24-4.8-1.76-3.52-1.44-84.48 50.24-113.44-113.28 50.88-84.96-1.28-3.2q-1.92-5.12-3.36-9.6v-1.44L144 592V432l96.96-24.32 1.76-5.28 2.72-7.36L192 306.56 306.56 192l87.84 52.64 3.04-1.28 9.28-3.2h1.12L432 144h160l24 96h1.6c2.88 0 5.92 1.92 9.76 3.36l3.52 1.44 84.32-50.56 113.44 113.28-51.04 84.96 1.44 3.36c1.28 3.52 2.4 6.56 3.36 9.6v1.28L880 432v160l-96.96 24.32-1.76 5.28-2.72 7.36L832 717.44 717.44 832l-87.84-52.64-3.04 1.28c-3.04 1.12-6.08 2.24-9.44 3.2h-0.96L592 880z m-88-579.36a219.2 219.2 0 0 0 0 438.4h16a219.2 219.2 0 0 0 0-438.4z" fill="#5E5C5C" p-id="2733"></path><path d="M640 396a96 96 0 0 0-153.6 108.64l-118.4 118.4 2.24 42.88 42.72 2.08 17.28-17.12s-22.56-22.4-15.04-30.08 29.92 15.04 29.92 15.04l15.04-15.04s-22.4-22.4-15.04-29.92 30.08 15.04 30.08 15.04l-1.28 1.28 16-16s-22.4-22.56-15.04-29.92 29.92 14.88 29.92 14.88l-5.44 5.44 32-32a96 96 0 0 0 108.64-153.6z m-45.12 89.92a32 32 0 1 1 0-44.96 32 32 0 0 1 0 44.96z" fill="#1680F4" p-id="2734"></path></svg>